Coordinates
version=1
nRows=54
nColumns=12
inDegrees=yes

Units are S.I. units (second, meters, Newtons, ...)
Angles are in degrees

endheader
time	SC_y	SC_z	SC_x	AC_y	AC_z	AC_x	GH_y	GH_z	GH_yy	EL_x	PS_y
       0.0              -30.27           26.3          3.806          40.27          3.826         -18.89         -33.27          23.69         -81.41          62.38          115.9
   0.01572              -30.27           26.3          3.812          40.27          3.823         -18.89         -33.28           23.7         -81.41          62.37          115.9
   0.03143              -30.27           26.3          3.817          40.27           3.82         -18.88          -33.3           23.7         -81.41          62.37          115.9
   0.04715              -30.27          26.31          3.823          40.27          3.817         -18.88         -33.31          23.71          -81.4          62.37          115.9
   0.06287              -30.27          26.31           3.83          40.27          3.814         -18.87         -33.32          23.71          -81.4          62.36          115.9
   0.07858              -30.27          26.31          3.836          40.27           3.81         -18.86         -33.33          23.72          -81.4          62.36          115.9
    0.0943              -30.27          26.31          3.844          40.27          3.806         -18.85         -33.35          23.72          -81.4          62.36          115.9
      0.11              -30.27          26.31          3.852          40.27          3.802         -18.85         -33.37          23.73         -81.39          62.35          115.9
    0.1257              -30.27          26.31           3.86          40.27          3.797         -18.84         -33.38          23.74         -81.39          62.35          115.9
    0.1415              -30.27          26.31          3.869          40.28          3.792         -18.83          -33.4          23.75         -81.39          62.34          115.9
    0.1572              -30.26          26.32          3.879          40.28          3.787         -18.82         -33.42          23.75         -81.38          62.34          115.9
    0.1729              -30.26          26.32          3.889          40.28          3.782         -18.81         -33.44          23.76         -81.38          62.33          115.9
    0.1886              -30.26          26.32            3.9          40.28          3.776          -18.8         -33.47          23.77         -81.38          62.32          115.9
    0.2043              -30.26          26.32          3.912          40.28          3.769         -18.78         -33.49          23.78         -81.37          62.32          115.9
      0.22              -30.26          26.33          3.925          40.28          3.762         -18.77         -33.52           23.8         -81.37          62.31          115.9
    0.2358              -30.26          26.33          3.939          40.28          3.754         -18.76         -33.55          23.81         -81.36           62.3          115.9
    0.2515              -30.26          26.33          3.955          40.28          3.746         -18.74         -33.58          23.82         -81.36          62.29          115.9
    0.2672              -30.26          26.33          3.971          40.28          3.737         -18.72         -33.61          23.84         -81.35          62.28          115.9
    0.2829              -30.26          26.34           3.99          40.28          3.727          -18.7         -33.65          23.85         -81.34          62.27          115.9
    0.2986              -30.26          26.34           4.01          40.28          3.717         -18.68         -33.69          23.87         -81.34          62.26          115.9
    0.3143              -30.26          26.35          4.032          40.28          3.705         -18.66         -33.74          23.89         -81.33          62.25          115.9
    0.3301              -30.26          26.35          4.056          40.28          3.692         -18.63         -33.79          23.91         -81.32          62.23          116.0
    0.3458              -30.25          26.36          4.083          40.28          3.677         -18.61         -33.84          23.93         -81.31          62.22          116.0
    0.3615              -30.25          26.36          4.112          40.28          3.661         -18.58          -33.9          23.96          -81.3           62.2          116.0
    0.3772              -30.25          26.37          4.145          40.29          3.643         -18.54         -33.97          23.99         -81.29          62.18          116.0
    0.3929              -30.25          26.38          4.182          40.29          3.624          -18.5         -34.05          24.02         -81.27          62.16          116.0
    0.4086              -30.25          26.38          4.223          40.29          3.601         -18.46         -34.13          24.05         -81.26          62.14          116.0
    0.4244              -30.24          26.39           4.27          40.29          3.577         -18.41         -34.23          24.09         -81.24          62.11          116.0
    0.4401              -30.24           26.4          4.322          40.29          3.548         -18.36         -34.34          24.14         -81.22          62.08          116.0
    0.4558              -30.24          26.42          4.381          40.29          3.516          -18.3         -34.46          24.19          -81.2          62.05          116.1
    0.4715              -30.23          26.43          4.449           40.3           3.48         -18.23          -34.6          24.25         -81.18          62.01          116.1
    0.4872              -30.23          26.45          4.527           40.3          3.438         -18.14         -34.76          24.32         -81.15          61.96          116.1
    0.5029              -30.23          26.46          4.617           40.3          3.389         -18.05         -34.94           24.4         -81.12          61.91          116.2
    0.5187              -30.22          26.48          4.722          40.31          3.333         -17.94         -35.16          24.49         -81.08          61.85          116.2
    0.5344              -30.21          26.51          4.844          40.31          3.267         -17.82         -35.41          24.59         -81.04          61.78          116.2
    0.5501              -30.21          26.54          4.988          40.32           3.19         -17.67         -35.71          24.72         -80.98           61.7          116.3
    0.5658               -30.2          26.57          5.159          40.32          3.098         -17.49         -36.06          24.87         -80.92           61.6          116.4
    0.5815              -30.19          26.61          5.364          40.33          2.987         -17.28         -36.48          25.05         -80.85          61.48          116.4
    0.5972              -30.17          26.66          5.613          40.34          2.853         -17.02          -37.0          25.26         -80.76          61.34          116.5
     0.613              -30.16          26.72          5.916          40.35           2.69          -16.7         -37.62          25.53         -80.65          61.17          116.6
    0.6287              -30.14           26.8           6.29          40.36          2.488         -16.31         -38.39          25.85         -80.52          60.95          116.8
    0.6444              -30.11          26.89          6.757          40.38          2.237         -15.83         -39.36          26.26         -80.35          60.69          117.0
    0.6601              -30.08          27.01          7.345           40.4           1.92         -15.22         -40.57          26.77         -80.14          60.35          117.2
    0.6758              -30.04          27.16          8.093          40.43          1.517         -14.44         -42.11          27.42         -79.87          59.92          117.5
    0.6915              -29.99          27.35          9.049          40.46          1.002         -13.45         -44.08          28.25         -79.52          59.37          117.8
    0.7073              -29.93          27.59          10.28          40.51         0.3406         -12.17         -46.61          29.32         -79.08          58.67          118.3
     0.723              -29.85           27.9          11.85          40.57        -0.5042         -10.54         -49.84          30.68         -78.52          57.77          118.9
    0.7387              -29.74           28.3          13.82          40.64         -1.566         -8.492         -53.91           32.4         -77.81          56.64          119.6
    0.7544              -29.62          28.78          16.22          40.73         -2.861         -5.995         -58.86          34.49         -76.94          55.26          120.5
    0.7701              -29.47          29.33          19.01          40.83         -4.361           -3.1         -64.61          36.91         -75.94          53.66          121.5
    0.7858              -29.31          29.93          22.02          40.94         -5.986        0.03382         -70.82          39.54         -74.85          51.93          122.7
    0.8016              -29.15          30.53          25.04          41.05         -7.611          3.168         -77.04          42.16         -73.77           50.2          123.8
    0.8173              -29.01          31.09          27.83          41.15         -9.111          6.062         -82.78          44.58         -72.76          48.61          124.8
     0.833              -28.88          31.57          30.23          41.24         -10.41          8.559         -87.74          46.67          -71.9          47.23          125.7
